<svg width="196" height="49" viewBox="0 0 196 49" fill="none" xmlns="http://www.w3.org/2000/svg">
<path d="M136.595 9.45001C136.951 9.80001 136.951 10.15 136.24 10.5C135.884 10.5 135.528 10.5 135.172 10.15C134.105 8.05001 128.77 7.00001 119.521 7.00001C117.742 7.00001 115.964 7.00001 114.541 7.00001C111.339 11.9 107.427 18.55 102.802 26.6C96.3993 37.8 91.775 45.15 89.6407 48.65C89.6407 49 89.285 49 88.9292 48.65L88.5735 48.3C88.5735 47.95 88.5735 47.95 88.5735 47.6C93.1978 40.25 96.0436 33.6 97.8222 28C99.6007 22.4 99.9565 18.2 98.5336 15.05C98.1779 14.35 97.8222 14 97.4664 13.65C97.1107 13.3 96.755 12.95 96.0436 12.6C95.6879 12.25 94.9764 11.9 94.265 11.9C93.5536 11.55 93.1978 11.55 92.8421 11.2C92.4864 11.2 92.1307 10.85 91.4193 10.85C90.7078 10.5 90.3521 10.5 89.9964 10.5C89.6407 10.5 89.285 10.15 89.285 9.80001C88.9292 9.10001 89.6407 8.75001 90.7078 8.05001C92.8421 7.70001 96.0436 7.00001 100.312 6.65001C104.581 5.95001 109.205 5.60001 113.829 5.60001L114.897 4.20001L115.252 3.85001C115.608 3.85001 115.608 3.85001 115.964 3.85001L116.319 4.20001C116.319 4.55001 116.319 4.55001 116.319 4.55001L115.964 5.25001C117.387 5.25001 118.809 5.25001 120.232 5.25001C129.125 5.60001 134.817 7.00001 136.595 9.45001ZM91.4193 9.45001C91.0635 9.45001 91.0635 9.45001 91.4193 9.45001V9.45001ZM101.735 25.9C107.782 15.75 111.339 9.45001 113.118 7.00001C108.494 7.00001 104.225 7.35001 100.312 8.05001C96.3993 8.40001 93.5536 9.10001 91.775 9.80001C91.775 9.80001 91.775 9.80001 92.1307 9.80001H92.4864C93.1978 9.80001 93.5536 10.15 94.265 10.15C94.6207 10.15 95.3321 10.5 96.0436 10.85C96.755 11.2 97.4664 11.55 97.8222 11.9C98.1779 12.25 98.8893 12.6 99.245 13.3C99.6007 14 99.9565 14.35 100.312 15.05C101.735 18.2 101.379 22.75 99.6007 28.7C99.245 29.75 98.8893 30.8 98.5336 31.85L101.735 25.9Z" fill="#55094C"/>
<path d="M125.924 25.9C125.924 25.9 125.924 26.25 125.924 26.6C125.924 26.95 125.568 26.95 125.568 26.95C123.789 27.65 122.367 28.35 121.299 28.7C120.232 29.05 119.165 29.4 118.454 29.4C117.742 29.4 117.387 29.4 117.031 29.4C116.675 29.05 116.319 29.05 116.319 28.7C116.319 28.35 115.964 28.35 115.964 28C115.964 27.65 115.964 27.65 115.608 27.65C115.608 27.65 115.252 27.65 114.897 27.65C114.541 27.65 113.829 28 113.118 28.35C112.762 28.7 112.051 29.05 110.984 29.4C110.628 29.75 110.628 29.75 110.272 29.75C110.272 29.75 109.917 29.75 109.917 30.1C109.561 30.1 109.561 30.1 109.561 30.1H109.205C108.849 29.75 108.849 29.4 109.205 29.05C109.205 28.7 109.917 27.65 110.628 26.6L111.339 25.55C111.339 25.55 111.339 25.55 111.339 25.2C116.319 17.85 119.877 13.3 122.722 11.2C124.145 10.15 125.212 10.15 125.568 11.2C125.924 11.9 125.568 12.95 124.857 14.35C123.789 16.1 122.367 18.2 120.232 20.65C118.098 22.75 115.608 24.85 112.407 26.25L111.695 27.3C111.695 27.3 111.695 27.3 111.695 27.65C112.051 27.3 112.407 27.3 112.762 26.95C113.474 26.6 114.185 26.25 114.897 25.9C115.608 25.55 115.964 25.55 116.319 25.55C116.675 25.55 117.031 25.55 117.031 25.9C117.387 25.9 117.387 26.25 117.387 26.25C117.387 26.25 117.742 26.6 117.742 26.95V27.3C117.742 27.3 117.742 27.3 117.742 27.65C117.742 27.65 117.742 27.65 118.098 27.65H118.454C118.809 27.65 118.809 27.65 119.165 27.65C119.521 27.65 119.877 27.65 120.232 27.3C120.588 27.3 120.944 26.95 121.655 26.95C122.011 26.6 122.722 26.6 123.434 26.25C124.145 25.9 124.857 25.55 125.568 25.2C125.568 25.55 125.924 25.55 125.924 25.9ZM123.434 12.95C121.299 14.35 118.454 18.2 114.185 24.15C116.319 22.75 118.454 21 119.877 19.25C121.655 17.5 122.722 15.75 123.434 14.35C123.789 13.3 124.145 12.6 124.145 12.25C124.145 12.25 124.145 12.25 123.789 12.6C123.434 12.95 123.434 12.95 123.434 12.95Z" fill="#55094C"/>
<path d="M140.152 24.5C140.508 24.5 140.508 24.5 140.864 24.5V24.85C140.508 25.2 140.508 25.55 140.152 26.25C141.575 25.2 142.998 24.5 144.065 24.15C144.421 24.15 145.133 24.15 145.488 24.15C146.2 24.15 146.555 24.5 146.555 24.85C146.555 25.2 146.555 25.9 146.2 26.25L145.844 26.6C145.488 26.6 145.488 26.6 145.132 26.6C144.777 26.25 144.777 25.9 144.777 25.55C144.777 25.55 144.421 25.55 144.065 25.55C143.354 25.9 142.287 26.25 141.22 26.95C140.152 27.65 139.441 28.35 138.374 29.4C138.73 30.1 138.73 30.1 138.374 30.45C137.662 30.8 137.307 30.45 137.307 29.4C137.307 29.4 137.307 29.05 137.662 28.7C138.018 28 138.018 27.3 138.374 26.6C136.951 27.3 135.884 27.65 134.817 28C132.682 28.7 130.548 29.05 128.77 29.4C126.28 29.75 124.857 29.4 124.145 29.05C123.789 28.7 123.434 28.35 123.434 27.65C123.434 27.3 123.789 26.95 124.145 26.6C124.501 26.25 125.212 25.9 125.924 25.55C126.635 25.2 127.702 25.2 128.77 25.2C129.837 25.2 130.192 25.2 130.548 25.55C131.26 25.9 131.26 26.6 130.548 26.95C130.192 27.3 129.837 27.3 129.481 27.65C128.77 28 128.414 28 127.347 28C126.635 28 125.924 27.65 125.568 27.3C125.212 27.3 125.212 27.65 124.857 27.65L124.501 28C125.568 28 126.635 28 128.77 28C130.548 27.65 132.682 27.3 134.461 26.95C136.595 25.9 138.374 25.2 140.152 24.5Z" fill="#55094C"/>
<path d="M155.804 25.2C155.804 25.2 156.16 25.2 156.16 25.55C156.16 25.9 156.16 25.9 156.16 26.25C156.16 26.6 155.804 26.6 155.804 26.6C155.448 26.6 155.448 26.6 155.093 26.6C155.093 26.6 155.093 26.6 154.737 26.6C154.381 27.3 154.381 27.65 154.381 28L154.737 28.35C155.093 28.35 155.804 28.35 156.515 28.35C157.227 28.35 158.294 28 159.361 27.65C160.428 27.3 161.14 26.95 161.851 26.6C163.274 26.25 163.63 25.9 163.63 25.9C163.63 25.9 163.985 25.55 163.985 25.9C164.341 25.9 164.341 25.9 164.341 26.25C164.341 26.25 164.697 26.6 164.341 26.95C164.341 27.3 164.341 27.3 163.985 27.3C163.63 27.65 162.918 28 161.14 28.7C159.361 29.4 157.938 29.75 156.871 30.1C155.804 30.45 155.093 30.45 154.381 30.1C153.314 29.75 152.958 29.4 152.603 28.7V28.35C151.891 28.7 150.824 29.05 149.757 29.4C148.334 29.75 147.267 30.1 146.911 29.75C145.844 29.4 145.844 29.05 146.2 28C146.555 27.65 146.911 27.3 147.623 26.95C148.334 26.6 149.045 26.25 149.757 25.9C150.468 25.55 151.535 25.55 152.603 25.2C154.381 24.85 155.093 24.85 155.804 25.2ZM153.314 26.25C151.891 26.25 150.468 26.95 149.045 27.65L148.69 28C149.045 28 149.401 28 149.757 27.65C150.824 27.3 151.535 26.95 152.247 26.6C152.958 26.6 152.958 26.25 153.314 26.25Z" fill="#55094C"/>
<path d="M178.926 25.55C179.281 25.55 179.281 25.55 179.281 25.55L179.637 25.9C179.637 26.25 179.637 26.25 179.281 26.25L178.926 26.6C177.503 26.6 175.724 26.95 173.946 27.3C173.234 27.3 172.167 27.65 171.456 28C170.744 29.05 169.321 29.75 167.898 30.1C167.187 30.45 166.476 30.45 166.12 30.45C165.408 30.45 165.053 30.45 164.697 30.1C164.697 29.75 164.697 29.4 165.408 29.05C165.764 28.7 166.831 28.35 168.254 28C169.321 27.65 170.033 27.3 170.744 27.3C170.744 26.95 170.744 26.95 170.744 26.95V26.6L170.388 26.25C170.033 26.25 169.677 26.25 169.321 26.25C168.61 26.6 167.543 26.95 166.476 27.65C166.12 28 165.764 28.35 165.053 29.4C164.341 30.1 163.63 31.5 162.563 32.9C161.495 34.3 160.784 35.7 160.073 36.75C159.361 37.8 158.294 39.2 157.227 41.3C155.804 43.4 154.737 45.15 153.67 46.55C153.67 46.9 153.314 46.9 153.314 46.9C152.958 46.9 152.958 46.9 152.603 46.9L152.247 46.55C152.247 46.2 152.247 46.2 152.247 45.85C156.515 38.85 158.65 35.35 158.65 35C159.717 33.25 160.784 31.15 162.207 28.7C163.63 26.25 164.697 24.85 164.697 24.15C164.697 23.8 165.053 23.8 165.053 23.8C165.408 23.8 165.408 23.8 165.764 23.8L166.12 24.15C166.12 24.5 166.12 24.5 166.12 24.85L163.985 28.35C164.697 27.65 165.053 26.95 165.408 26.6C166.476 25.55 167.543 25.2 168.61 24.85C169.321 24.85 170.033 24.85 170.388 24.85C171.1 24.85 171.456 25.2 171.456 25.9C171.456 26.25 171.811 26.6 171.811 26.95C172.167 26.95 172.878 26.6 173.234 26.6C175.724 25.9 177.503 25.55 178.926 25.55Z" fill="#55094C"/>
<path d="M195.289 25.55C195.644 25.55 195.644 25.55 195.644 25.9C195.644 25.9 195.644 26.25 195.644 26.6V26.95C192.443 28.7 189.597 30.45 186.751 32.2C185.328 35.35 183.194 38.15 181.06 40.6C178.926 43.05 176.436 44.8 174.301 45.85C172.167 46.9 170.744 47.25 170.033 46.9C169.321 46.55 169.321 46.2 169.321 45.5C169.321 44.8 169.677 44.1 170.744 43.05C173.234 40.25 178.214 36.4 186.04 31.5C186.396 30.45 186.751 29.4 187.107 28.35L187.463 27.3C187.107 27.3 186.396 27.65 184.617 28.7C183.906 29.05 183.194 29.4 182.838 29.75C182.483 30.1 181.771 30.1 181.416 30.45C180.704 30.8 180.348 30.8 179.993 30.45C177.858 30.1 177.858 28.7 178.57 26.25C178.57 25.9 178.57 25.9 178.926 25.9C178.926 25.9 179.281 25.9 179.637 25.9C179.993 25.9 179.993 26.25 179.993 26.25C179.993 26.25 179.993 26.6 179.993 26.95C179.637 28.35 179.637 29.4 179.637 29.4C179.993 29.4 181.416 29.05 183.55 27.65C184.261 27.3 184.973 26.95 185.328 26.6C185.684 26.25 186.04 26.25 186.751 25.9C187.107 25.9 187.819 25.55 187.819 25.9C188.53 25.9 188.53 26.6 188.174 28.35C187.819 29.05 187.819 29.4 187.463 29.75C189.953 28.35 192.087 26.95 194.577 25.55C194.933 25.55 195.289 25.55 195.289 25.55ZM173.59 44.45C175.368 43.4 177.147 42 179.281 40.25C181.416 38.5 182.838 36.05 184.261 33.6C177.503 37.8 173.234 41.3 171.1 43.75C170.388 44.8 170.033 45.15 170.033 45.5C170.744 45.5 171.811 45.15 173.59 44.45Z" fill="#55094C"/>
<path d="M0.711434 2.45C0.355717 2.45 0.355717 2.45 0.355717 2.45V2.1V0.7C0 0.35 0 0.35 0 0C0 0 0.355717 0 0.711434 0H7.47005C7.82577 0 8.18149 0 8.18149 0C8.18149 0 8.53721 0.35 8.53721 0.7V18.9C8.53721 19.25 8.53721 19.6 8.53721 19.6H8.89292L16.363 14C16.7187 14 17.0744 13.65 17.0744 13.65C17.0744 13.65 16.7187 13.65 16.0073 13.65H13.5172C13.1615 13.65 12.8058 13.65 12.8058 13.65C12.8058 13.65 12.8058 13.3 12.8058 12.95V11.55C12.8058 11.2 12.8058 11.2 12.8058 11.2H13.1615H24.1887C24.5445 11.2 24.5445 11.2 24.5445 11.2C24.5445 11.2 24.5445 11.55 24.5445 11.9V13.3C24.5445 13.65 24.5445 13.65 24.5445 14C24.5445 14 24.1887 14 23.833 14H22.0544C21.6987 14 21.343 14 21.343 14C20.9873 13.65 20.6316 14 20.6316 14L13.5172 19.6L13.1615 19.95C13.1615 19.95 13.1615 20.3 13.5172 20.65L22.4102 29.75C22.7659 30.1 22.7659 30.1 22.7659 30.1C22.7659 30.1 23.1216 30.1 23.4773 30.1H24.9002C25.2559 30.1 25.2559 30.1 25.2559 30.1V30.45V31.85C25.2559 32.2 25.2559 32.55 25.2559 32.55C25.2559 32.55 24.9002 32.55 24.5445 32.55H15.2958C14.9401 32.55 14.9401 32.55 14.5844 32.55C14.5844 32.55 14.5844 32.2 14.5844 31.85V30.8C14.5844 30.45 14.5844 30.45 14.5844 30.1C14.5844 29.75 14.9401 30.1 15.2958 30.1H16.363C16.7187 30.1 17.0744 30.1 17.0744 30.1C17.0744 30.1 17.0744 29.75 16.7187 29.75L8.89292 21.35C8.89292 21.35 8.53721 21 8.53721 21.35C8.53721 21.35 8.53721 21.7 8.53721 22.05V29.4C8.53721 29.75 8.53721 29.75 8.53721 30.1C8.53721 30.45 8.89292 30.1 9.24864 30.1H11.0272C11.3829 30.1 11.3829 30.1 11.7387 30.1L12.0944 30.45V31.85C12.0944 32.2 12.0944 32.2 12.0944 32.2H11.7387H0.711434C0.355717 32.2 0.355717 32.2 0.355717 32.2V31.85V30.45C0.355717 30.1 0.355717 30.1 0.355717 30.1H0.711434H3.20145C3.55717 30.1 3.91289 30.1 3.91289 30.1C3.91289 30.1 3.91289 29.75 3.91289 29.4V3.15C3.91289 2.8 3.91289 2.8 3.55717 2.45C3.55717 2.45 3.20145 2.45 2.84574 2.45H0.711434Z" fill="#55094C"/>
<path d="M27.7459 30.8C27.7459 30.45 27.7459 30.45 27.7459 30.45H28.1016H30.2359C30.5917 30.45 30.9474 30.45 30.9474 30.45C30.9474 30.45 30.9474 30.1 30.9474 29.75V14.35C30.9474 14 30.9474 14 30.5917 13.65C30.5917 13.65 30.2359 13.65 29.8802 13.65H28.4573C28.1016 13.65 27.7459 13.65 27.7459 13.65C27.7459 13.65 27.3902 13.3 27.3902 12.95V11.9C27.3902 11.55 27.3902 11.2 27.3902 11.2C27.3902 11.2 27.7459 11.2 28.1016 11.2H34.1488C34.5045 11.2 34.8603 11.2 34.8603 11.2C34.8603 11.2 35.216 11.55 35.216 11.9V12.95C35.5717 13.3 35.5717 14 35.5717 14C35.5717 14 35.5717 14.35 35.9274 14C36.2831 13.65 36.2831 13.65 36.2831 13.3C36.9946 12.25 37.706 11.55 38.7731 11.2C39.8403 10.85 41.2632 10.5 42.686 10.5C44.1089 10.5 45.5318 10.85 46.2432 11.2C46.9546 11.9 47.6661 12.6 48.3775 13.3C48.3775 14 48.7332 14 48.7332 14C48.7332 14 49.0889 14 49.0889 13.65C49.8004 12.6 50.8675 11.9 51.9347 11.55C53.0018 10.85 54.4247 10.5 55.8475 10.5C58.3376 10.5 59.7604 11.2 60.8276 12.25C61.8947 13.3 62.2505 15.05 62.2505 17.5V29.4C62.2505 29.75 62.2505 30.1 62.2505 30.1C62.2505 30.1 62.6062 30.1 62.9619 30.1H65.0962C65.4519 30.1 65.4519 30.1 65.4519 30.1V30.45V31.5C65.4519 31.85 65.4519 32.2 65.4519 32.2C65.4519 32.2 65.0962 32.2 64.7405 32.2H55.1361C54.7804 32.2 54.4247 32.2 54.4247 32.2C54.4247 32.2 54.069 31.85 54.069 31.5V31.15C54.069 30.8 54.069 30.45 54.069 30.45C54.069 30.45 54.4247 30.45 54.7804 30.45H56.9147C57.2704 30.45 57.6261 30.45 57.6261 30.45C57.6261 30.45 57.6261 30.1 57.6261 29.75V17.85C57.6261 16.45 57.2704 15.4 56.9147 14.35C56.559 13.65 55.8476 13.3 54.4247 13.3C53.0018 13.3 51.9347 13.65 51.2232 14.35C50.5118 15.05 49.8004 16.1 49.4446 17.15C49.0889 18.2 49.0889 19.6 49.0889 21V29.4C49.0889 29.75 49.0889 30.1 49.4446 30.1C49.4446 30.1 49.8004 30.1 50.1561 30.1H51.5789C51.9347 30.1 52.2904 30.1 52.2904 30.1C52.2904 30.1 52.6461 30.45 52.6461 30.8V31.85C52.6461 32.2 52.6461 32.55 52.6461 32.55C52.6461 32.55 52.2904 32.55 51.9347 32.55H42.686C42.3303 32.55 42.3303 32.55 41.9746 32.55C41.9746 32.55 41.9746 32.2 41.9746 31.85V31.15C41.9746 30.8 41.9746 30.45 41.9746 30.45C41.9746 30.45 42.3303 30.45 42.686 30.45H44.1089C44.4646 30.45 44.8203 30.45 44.8203 30.45C44.8203 30.45 44.8203 30.1 44.8203 29.75V17.85C44.8203 16.45 44.4646 15.4 44.1089 14.35C43.7532 13.65 43.0417 13.3 41.6189 13.3C40.196 13.3 39.4846 13.65 38.4174 14.35C37.706 15.05 36.9946 16.1 36.6388 17.15C35.9274 18.2 35.5717 19.6 35.5717 21V29.4C35.5717 29.75 35.5717 30.1 35.5717 30.1C35.5717 30.1 35.9274 30.1 36.2831 30.1H38.4174C38.7731 30.1 38.7731 30.1 39.1289 30.1C39.1289 30.1 39.1289 30.45 39.1289 30.8V31.85C39.1289 32.2 39.1289 32.2 39.1289 32.55L38.7731 32.9H28.4573C28.1016 32.9 28.1016 32.9 28.1016 32.9V32.55V30.8H27.7459Z" fill="#55094C"/>
<path d="M69.7205 23.8C70.4319 22.75 71.8548 21.7 73.6334 21C75.412 20.3 77.1906 19.95 79.6806 19.95H81.8149C82.1706 19.95 82.1706 19.95 82.1706 19.95V19.6V17.5C82.1706 16.45 82.1706 15.75 81.8149 15.05C81.4592 14.35 81.1034 13.65 80.7477 13.3C80.0363 12.95 79.3249 12.6 78.2577 12.6C77.5463 12.6 76.8348 12.6 76.1234 12.95C75.412 12.95 75.0563 13.3 74.7005 13.65C74.3448 13.65 73.9891 14 73.9891 14C73.9891 14.35 73.9891 14.35 74.3448 14.7C74.7005 15.05 74.7005 15.05 74.7005 15.05C75.0563 15.4 75.0563 15.75 75.0563 16.1C75.0563 16.8 74.7005 17.5 74.3448 17.85C73.9891 18.2 73.2777 18.55 72.5662 18.55C71.8548 18.55 71.1434 18.2 70.4319 17.85C69.7205 17.5 69.7205 16.8 69.7205 15.75C69.7205 14.7 70.0762 14 70.4319 13.3C71.1434 12.6 71.8548 11.9 72.5662 11.55C73.6334 11.2 74.3448 10.85 75.7677 10.5C76.8348 10.5 78.2577 10.5 79.3249 10.5C81.4592 10.5 82.882 10.85 83.9492 11.55C85.0163 12.25 85.7278 12.95 86.0835 14C86.4392 15.05 86.7949 16.1 86.7949 17.5V29.75C86.7949 30.1 86.7949 30.45 87.1506 30.8C87.5063 31.15 87.5063 31.15 87.8621 31.15C88.2178 31.15 88.5735 31.15 88.9292 30.8C89.2849 30.8 89.6406 30.1 89.9964 29.75C89.9964 29.4 90.3521 29.4 90.3521 29.75L91.4192 30.45C91.775 30.45 91.775 30.8 91.4192 30.8C91.0635 31.5 90.7078 31.85 90.3521 32.55C89.9964 32.9 89.2849 33.25 88.5735 33.6C87.8621 33.95 87.5063 33.95 86.7949 33.95C85.7278 33.95 85.0163 33.95 84.3049 33.6C83.5935 33.25 83.2377 32.9 83.2377 32.55C83.2377 32.2 82.882 31.85 82.882 31.5C82.882 31.15 82.5263 31.15 82.5263 31.15C82.5263 31.15 82.1706 31.15 82.1706 31.5C81.8149 31.85 81.4592 32.2 81.1034 32.55C80.7477 32.9 80.0363 33.25 78.9691 33.6C78.2577 33.95 76.8348 33.95 75.412 33.95C73.2777 33.95 71.8548 33.6 70.4319 32.55C69.0091 31.5 68.6534 30.1 68.6534 28.35C68.2976 26.25 68.6534 24.85 69.7205 23.8ZM74.7005 29.75C75.412 30.45 76.4791 30.45 77.5463 30.45C78.9691 30.45 80.0363 30.1 81.1034 29.05C81.8149 28 82.1706 26.6 82.1706 24.85V22.4C82.1706 22.05 82.1706 22.05 81.8149 22.05H80.0363C78.6134 22.05 77.1906 22.4 76.4791 22.75C75.0563 23.1 74.7005 23.45 73.9891 24.5C73.6334 25.2 73.2777 26.25 73.2777 26.95C73.6334 28.35 73.9891 29.05 74.7005 29.75Z" fill="#55094C"/>
</svg>
